<?xml version="1.0" encoding="iso-8859-1"?>
<!-- Generator: Adobe Illustrator 19.0.0, SVG Export Plug-In . SVG Version: 6.00 Build 0)  -->
<svg version="1.1" id="Capa_1" xmlns="http://www.w3.org/2000/svg" xmlns:xlink="http://www.w3.org/1999/xlink" x="0px" y="0px"
	 viewBox="0 0 512.001 512.001" style="enable-background:new 0 0 512.001 512.001;" xml:space="preserve">
<path style="fill:#93603E;" d="M191.294,305.764c0-89.794,73.907-162.26,164.102-160.046
	c-20.667-41.808-54.963-75.862-100.026-91.317C157.245,20.749,45.28,87.998,11.628,186.122s7.053,238.654,105.178,272.307
	c46.7,16.016,97.983,4.925,142.543-21.664C218.19,407.793,191.294,359.922,191.294,305.764z"/>
<g>
	<path style="fill:#7F573C;" d="M137.39,458.429C39.266,424.776-1.44,284.246,32.212,186.122
		C58.73,108.8,133.878,50.665,212.561,45.951c-85.826-5.265-172.108,56.122-200.934,140.171
		c-33.652,98.124,7.053,238.654,105.178,272.307c18.107,6.21,36.904,8.329,55.731,7.065
		C160.656,464.663,148.884,462.371,137.39,458.429z"/>
	<path style="fill:#7F573C;" d="M351.39,145.153c-88.561,0-160.611,72.05-160.611,160.611s72.05,160.611,160.611,160.611
		s160.611-72.05,160.611-160.611S439.951,145.153,351.39,145.153z"/>
</g>
<path style="fill:#6D4A31;" d="M211.363,305.764c0-85.103,66.536-154.946,150.319-160.272c-3.404-0.216-6.834-0.339-10.292-0.339
	c-88.561,0-160.611,72.05-160.611,160.611s72.05,160.611,160.611,160.611c3.458,0,6.888-0.123,10.292-0.339
	C277.9,460.711,211.363,390.867,211.363,305.764z"/>
<path style="fill:#E5E1E1;" d="M351.39,429.695c-68.336,0-123.932-55.595-123.932-123.931s55.596-123.931,123.932-123.931
	s123.931,55.595,123.931,123.931S419.726,429.695,351.39,429.695z"/>
<g>
	<path style="fill:#BABABA;" d="M248.043,305.764c0-64.87,50.101-118.252,113.639-123.5c-3.395-0.28-6.826-0.431-10.292-0.431
		c-68.336,0-123.931,55.595-123.931,123.931s55.596,123.931,123.931,123.931c3.466,0,6.897-0.15,10.292-0.431
		C298.144,424.016,248.043,370.634,248.043,305.764z"/>
	<path style="fill:#BABABA;" d="M351.254,222.681c-45.812,0-83.084,37.271-83.084,83.083s37.271,83.083,83.084,83.083
		c45.812,0,83.083-37.271,83.083-83.083S397.066,222.681,351.254,222.681z"/>
</g>
<path style="fill:#AAA8A7;" d="M288.755,305.764c0-42.325,31.821-77.335,72.791-82.423c-3.375-0.419-6.805-0.66-10.292-0.66
	c-45.812,0-83.084,37.271-83.084,83.083s37.271,83.083,83.084,83.083c3.487,0,6.917-0.241,10.292-0.66
	C320.576,383.099,288.755,348.09,288.755,305.764z"/>
<g>
	<path style="fill:#999898;" d="M349.628,267.652c1.608-1.236,2.688-3.106,2.944-5.12c0.054-0.372,0.072-0.753,0.066-1.136
		c-0.012-0.735-0.127-1.47-0.351-2.171c-0.121-0.38-0.27-0.756-0.445-1.104c-0.226-0.462-0.492-0.894-0.8-1.293
		c-0.308-0.4-0.655-0.768-1.045-1.106c-0.292-0.259-0.619-0.5-0.955-0.715c-0.619-0.396-1.299-0.695-2.005-0.895
		c-0.368-0.104-0.741-0.185-1.114-0.228c-2.012-0.27-4.097,0.294-5.705,1.53c-1.607,1.236-2.688,3.105-2.944,5.119
		c-0.054,0.373-0.072,0.754-0.066,1.136c0.012,0.741,0.13,1.482,0.357,2.188c0.12,0.374,0.267,0.744,0.439,1.087
		c0.226,0.463,0.492,0.894,0.8,1.294c0.307,0.4,0.656,0.768,1.045,1.105c0.286,0.254,0.605,0.491,0.935,0.703
		c0.624,0.402,1.311,0.705,2.025,0.908c0.368,0.105,0.741,0.185,1.115,0.228C345.936,269.451,348.021,268.888,349.628,267.652z"/>
	<path style="fill:#999898;" d="M372.337,298.877c1.608-1.236,2.688-3.106,2.944-5.12c0.054-0.372,0.072-0.753,0.066-1.136
		c-0.012-0.735-0.127-1.47-0.351-2.171c-0.121-0.38-0.27-0.756-0.445-1.104c-0.226-0.462-0.492-0.894-0.8-1.293
		c-0.308-0.4-0.655-0.768-1.045-1.106c-0.292-0.259-0.619-0.5-0.955-0.716c-0.619-0.396-1.299-0.695-2.005-0.895
		c-0.368-0.104-0.741-0.185-1.114-0.228c-2.012-0.27-4.097,0.294-5.705,1.53c-1.607,1.236-2.688,3.105-2.944,5.12
		c-0.054,0.373-0.072,0.754-0.066,1.136c0.012,0.741,0.13,1.482,0.357,2.188c0.12,0.374,0.267,0.744,0.439,1.087
		c0.226,0.463,0.492,0.894,0.8,1.294c0.307,0.4,0.656,0.768,1.045,1.105c0.286,0.254,0.605,0.491,0.935,0.703
		c0.624,0.402,1.311,0.705,2.025,0.908c0.368,0.105,0.741,0.185,1.115,0.228C368.645,300.676,370.73,300.112,372.337,298.877z"/>
	<path style="fill:#999898;" d="M396.27,329.16c1.608-1.236,2.688-3.106,2.944-5.12c0.054-0.372,0.072-0.753,0.066-1.136
		c-0.012-0.735-0.127-1.47-0.351-2.171c-0.121-0.38-0.27-0.756-0.445-1.104c-0.226-0.462-0.492-0.894-0.8-1.293
		c-0.308-0.4-0.655-0.768-1.045-1.106c-0.292-0.259-0.619-0.5-0.955-0.715c-0.619-0.396-1.299-0.695-2.005-0.896
		c-0.368-0.104-0.741-0.185-1.114-0.228c-2.012-0.27-4.097,0.294-5.705,1.53c-1.607,1.236-2.688,3.105-2.944,5.119
		c-0.054,0.373-0.072,0.754-0.066,1.136c0.012,0.741,0.13,1.482,0.357,2.188c0.12,0.374,0.267,0.744,0.439,1.087
		c0.226,0.463,0.492,0.894,0.8,1.294c0.307,0.4,0.656,0.768,1.045,1.105c0.286,0.254,0.605,0.491,0.935,0.703
		c0.624,0.402,1.311,0.705,2.025,0.908c0.368,0.105,0.741,0.185,1.115,0.228C392.578,330.96,394.662,330.396,396.27,329.16z"/>
	<path style="fill:#999898;" d="M384.678,268.004c1.548-1.31,2.541-3.228,2.703-5.252c0.037-0.374,0.037-0.756,0.013-1.138
		c-0.047-0.734-0.195-1.463-0.452-2.152c-0.139-0.374-0.305-0.743-0.496-1.082c-0.247-0.451-0.534-0.87-0.859-1.255
		c-0.326-0.385-0.69-0.737-1.095-1.056c-0.304-0.245-0.641-0.471-0.988-0.67c-0.637-0.366-1.33-0.634-2.045-0.801
		c-0.372-0.087-0.748-0.15-1.124-0.176c-2.023-0.176-4.079,0.485-5.627,1.794s-2.541,3.227-2.703,5.251
		c-0.037,0.375-0.037,0.757-0.013,1.138c0.047,0.74,0.199,1.474,0.458,2.169c0.138,0.368,0.301,0.731,0.49,1.065
		c0.247,0.452,0.533,0.87,0.859,1.255c0.326,0.385,0.691,0.737,1.095,1.055c0.298,0.241,0.628,0.462,0.967,0.658
		c0.642,0.372,1.342,0.644,2.065,0.813c0.372,0.087,0.749,0.15,1.125,0.176C381.074,269.973,383.131,269.313,384.678,268.004z"/>
	<path style="fill:#999898;" d="M404.393,293.646c1.548-1.31,2.541-3.228,2.703-5.252c0.037-0.374,0.037-0.756,0.013-1.138
		c-0.047-0.734-0.195-1.463-0.452-2.152c-0.139-0.374-0.305-0.743-0.496-1.082c-0.247-0.451-0.534-0.87-0.859-1.255
		c-0.326-0.385-0.69-0.737-1.095-1.056c-0.304-0.245-0.641-0.471-0.988-0.67c-0.637-0.366-1.33-0.634-2.045-0.801
		c-0.372-0.087-0.748-0.15-1.124-0.176c-2.023-0.176-4.079,0.485-5.627,1.794c-1.548,1.309-2.541,3.227-2.703,5.251
		c-0.037,0.375-0.037,0.757-0.013,1.138c0.047,0.74,0.199,1.474,0.458,2.169c0.138,0.368,0.301,0.731,0.49,1.065
		c0.247,0.452,0.533,0.87,0.859,1.255c0.326,0.385,0.691,0.737,1.095,1.055c0.298,0.241,0.628,0.462,0.967,0.658
		c0.642,0.372,1.342,0.644,2.065,0.813c0.373,0.087,0.749,0.15,1.125,0.176C400.789,295.616,402.846,294.955,404.393,293.646z"/>
</g>
<g>
</g>
<g>
</g>
<g>
</g>
<g>
</g>
<g>
</g>
<g>
</g>
<g>
</g>
<g>
</g>
<g>
</g>
<g>
</g>
<g>
</g>
<g>
</g>
<g>
</g>
<g>
</g>
<g>
</g>
</svg>
