<?xml version="1.0" encoding="iso-8859-1"?>
<!-- Generator: Adobe Illustrator 19.0.0, SVG Export Plug-In . SVG Version: 6.00 Build 0)  -->
<svg version="1.1" id="Capa_1" xmlns="http://www.w3.org/2000/svg" xmlns:xlink="http://www.w3.org/1999/xlink" x="0px" y="0px"
	 viewBox="0 0 512 512" style="enable-background:new 0 0 512 512;" xml:space="preserve">
<path style="fill:#3BBC56;" d="M96.25,118.839c16.984,11.052,28.79,27.039,36.363,37.192c12.1,0.161,23.808,2.166,34.906,5.808
	c6.452,2.117,13.438,2.117,19.89,0c9.091-2.983,18.593-4.864,28.381-5.541c12.204-27.959,33.448-47.604,42.9-53.913
	c1.733-1.157,1.172-3.84-0.882-4.193c-27.076-4.654-50.554,9.661-59.564,16.176c-1.593,1.152-3.799-0.12-3.63-2.078
	c0.719-8.323,2.477-16.502,3.679-21.411c0.469-1.916-1.548-3.483-3.302-2.582c-12.714,6.532-20.021,16.999-23.178,22.491
	c-0.873,1.518-3.046,1.529-3.947,0.028c-16.844-28.084-42.796-42.604-56.837-48.785c-2.244-0.987-4.268,1.792-2.637,3.622
	c20.265,22.721,25.939,47.15,27.451,56.748c0.284,1.804-1.557,3.184-3.22,2.43c-13.041-5.912-26.033-8.794-34.759-10.177
	C95.432,114.268,94.186,117.496,96.25,118.839z"/>
<g>
	<path style="fill:#30AA44;" d="M135.843,122.401c0.05,0.316,0.015,0.611-0.053,0.891c5.536,1.582,11.479,3.645,17.438,6.346
		c1.663,0.754,3.504-0.626,3.22-2.43c-1.453-9.217-6.75-32.109-25.112-54.032c-7.734-5.147-14.904-8.767-20.307-11.145
		c-2.244-0.987-4.268,1.792-2.636,3.622C128.657,88.374,134.331,112.803,135.843,122.401z"/>
	<path style="fill:#30AA44;" d="M116.855,123.647c-2.06-1.34-0.822-4.556,1.6-4.186c-7.857-2.458-15.076-3.933-20.591-4.807
		c-2.432-0.386-3.678,2.842-1.614,4.185c16.984,11.052,28.79,27.039,36.363,37.192c6.202,0.083,12.299,0.657,18.265,1.681
		C143.291,147.613,132.19,133.626,116.855,123.647z"/>
</g>
<path style="fill:#EA473B;" d="M223.876,152.909c-12.656,0-24.891,2.041-36.468,5.84c-6.452,2.117-13.438,2.117-19.889,0
	C83.746,131.257,0,202.645,0,301.519c0,95.066,77.286,164.834,158.285,145.39c12.629-3.032,25.728-3.032,38.357,0
	c8.785,2.109,17.895,3.22,27.234,3.22c72.378,0,131.051-66.535,131.051-148.61C354.928,219.444,296.254,152.909,223.876,152.909z"/>
<path style="fill:#DD332F;" d="M21.676,301.519c0-79.962,54.775-141.936,120.04-148.181C67.377,146.278,0,212.834,0,301.519
	c0,88.57,67.086,155.167,141.758,148.132C76.259,443.425,21.676,381.41,21.676,301.519z"/>
<path style="fill:#EA473B;" d="M380.949,152.909c-33.088,0-38.617,11.661-56.357,5.84c-11.577-3.799-23.811-5.84-36.468-5.84
	c-72.377,0-131.051,66.535-131.051,148.609c0,95.066,77.286,164.834,158.285,145.39c28.711-6.892,36.964,3.22,65.591,3.22
	c72.378,0,131.051-66.535,131.051-148.61C512,219.444,453.326,152.909,380.949,152.909z"/>
<path style="fill:#DD332F;" d="M178.494,301.519c0-77.96,52.94-141.891,120.276-148.106c-3.513-0.321-7.061-0.503-10.647-0.503
	c-72.377,0-131.051,66.535-131.051,148.609c0,88.516,67.004,155.085,141.621,148.144
	C233.143,443.501,178.494,381.458,178.494,301.519z"/>
<path style="fill:#D12828;" d="M369.138,190.725h-0.137c-7.37,0-13.344,5.974-13.344,13.344v64.766
	c0,6.761,7.055,11.606,13.388,8.502c4.429-2.171,9.54-3.163,14.933-2.548c12.892,1.47,23.044,12.315,23.728,25.272
	c1.079,20.453-20.074,34.439-38.328,25.801c-6.564-3.107-13.721,1.903-13.721,8.81v64.143c0,7.415,6.067,13.489,13.481,13.498l0,0
	c53.96,0,97.704-49.604,97.704-110.794S423.099,190.725,369.138,190.725z"/>
<g>
	<path style="fill:#C12121;" d="M369.045,277.337c3.243-1.59,6.854-2.539,10.67-2.696c-1.24-1.591-2.006-3.591-2.006-5.805V204.07
		c0-5.189,2.968-9.675,7.293-11.883c-5.164-0.956-10.462-1.462-15.864-1.462h-0.137c-7.37,0-13.344,5.974-13.344,13.344v64.766
		C355.657,275.596,362.712,280.441,369.045,277.337z"/>
	<path style="fill:#C12121;" d="M377.709,398.815v-64.143c0-2.395,0.873-4.55,2.271-6.23c-3.524-0.112-7.116-0.93-10.603-2.581
		c-6.564-3.106-13.721,1.903-13.721,8.81v64.143c0,7.415,6.067,13.489,13.481,13.498c5.439,0,10.772-0.512,15.97-1.481
		C380.731,408.592,377.709,404.042,377.709,398.815z"/>
</g>
<path style="fill:#D12828;" d="M299.934,190.725h0.137c7.37,0,13.344,5.974,13.344,13.344v64.766c0,6.761-7.055,11.606-13.388,8.502
	c-17.525-8.592-37.668,3.908-38.661,22.724c-1.079,20.453,20.074,34.439,38.328,25.801c6.564-3.107,13.721,1.903,13.721,8.81v64.143
	c0,7.415-6.067,13.489-13.481,13.498l0,0c-53.96,0-97.704-49.604-97.704-110.794C202.23,240.329,245.974,190.725,299.934,190.725z"
	/>
<path style="fill:#C12121;" d="M222.835,301.519c0-55.476,35.956-101.429,82.884-109.526c-1.717-0.805-3.626-1.267-5.648-1.267
	h-0.137c-53.96,0-97.704,49.604-97.704,110.794s43.743,110.794,97.704,110.794l0,0c2.028-0.003,3.949-0.472,5.679-1.285
	C258.737,402.879,222.835,356.953,222.835,301.519z"/>
<g>
	<path style="fill:#EA473B;" d="M394.853,250.14c-0.848-0.159-1.878-0.543-2.781-1.154c-0.843-0.554-1.548-1.246-2.133-2.132
		c-0.611-0.928-0.988-1.9-1.154-2.782c-0.522-2.519,0.308-5.17,2.112-6.975c2.109-2.108,5.466-2.911,8.417-1.669
		c1.021,0.432,1.768,0.945,2.514,1.669c1.787,1.8,2.627,4.454,2.102,6.975c-0.178,0.952-0.561,1.897-1.143,2.782
		c-0.558,0.846-1.29,1.578-2.133,2.132c-0.926,0.611-1.935,0.996-2.781,1.154C396.847,250.351,395.821,250.343,394.853,250.14z"/>
	<path style="fill:#EA473B;" d="M396.357,368.196c-2.029,0-4.028-0.824-5.46-2.266c-0.361-0.351-0.68-0.753-0.958-1.175
		c-0.278-0.411-0.525-0.865-0.711-1.329c-0.196-0.464-0.35-0.958-0.443-1.442c-0.103-0.505-0.154-1.01-0.154-1.515
		c0-0.504,0.052-1.009,0.154-1.514c0.093-0.484,0.247-0.979,0.443-1.443c0.186-0.463,0.433-0.917,0.711-1.328
		c0.278-0.423,0.598-0.825,0.958-1.175c1.792-1.793,4.461-2.627,6.975-2.112c0.494,0.103,0.978,0.247,1.442,0.443
		c0.464,0.186,0.917,0.433,1.339,0.711c0.423,0.278,0.814,0.598,1.165,0.958c0.36,0.35,0.68,0.753,0.968,1.175
		c0.278,0.411,0.515,0.865,0.711,1.328c0.185,0.464,0.34,0.959,0.433,1.443c0.103,0.505,0.154,1.01,0.154,1.514
		c0,0.505-0.051,1.01-0.154,1.515c-0.093,0.484-0.247,0.978-0.433,1.442c-0.196,0.464-0.433,0.918-0.711,1.329
		c-0.289,0.423-0.608,0.824-0.968,1.175c-0.351,0.36-0.742,0.679-1.165,0.968c-0.422,0.279-0.875,0.515-1.339,0.711
		c-0.464,0.185-0.948,0.34-1.442,0.433C397.366,368.145,396.862,368.196,396.357,368.196z"/>
	<path style="fill:#EA473B;" d="M428.202,279.77c-0.505,0-1.01-0.051-1.515-0.154c-0.494-0.093-0.978-0.247-1.442-0.443
		c-0.463-0.186-0.917-0.434-1.329-0.701c-0.422-0.289-0.824-0.608-1.175-0.968c-0.36-0.351-0.68-0.753-0.968-1.175
		c-0.278-0.411-0.515-0.865-0.711-1.329c-0.185-0.474-0.34-0.958-0.443-1.453c-0.093-0.494-0.144-0.999-0.144-1.504
		c0-2.029,0.824-4.027,2.266-5.46c0.351-0.36,0.753-0.68,1.175-0.968c0.412-0.279,0.866-0.515,1.329-0.711
		c0.464-0.185,0.948-0.34,1.442-0.433c1-0.206,2.03-0.206,3.019,0c0.495,0.093,0.979,0.247,1.453,0.433
		c0.463,0.196,0.906,0.433,1.329,0.711c0.422,0.288,0.824,0.608,1.174,0.968c1.442,1.433,2.267,3.431,2.267,5.46
		c0,0.505-0.052,1.01-0.154,1.504c-0.093,0.495-0.247,0.979-0.443,1.453c-0.186,0.464-0.433,0.918-0.711,1.329
		c-0.278,0.423-0.598,0.824-0.958,1.175c-0.35,0.36-0.752,0.679-1.174,0.968c-0.423,0.268-0.866,0.515-1.329,0.701
		c-0.474,0.195-0.958,0.35-1.453,0.443C429.211,279.719,428.706,279.77,428.202,279.77z"/>
	<path style="fill:#EA473B;" d="M428.202,338.721c-0.505,0-1.01-0.051-1.515-0.155c-0.484-0.093-0.978-0.247-1.442-0.433
		c-0.463-0.196-0.917-0.433-1.329-0.711c-0.433-0.288-0.824-0.608-1.185-0.968c-0.35-0.35-0.67-0.741-0.958-1.174
		c-0.278-0.413-0.515-0.866-0.711-1.329c-0.185-0.464-0.34-0.959-0.433-1.443c-0.103-0.505-0.154-1.01-0.154-1.514
		c0-2.04,0.824-4.028,2.256-5.46c0.361-0.361,0.752-0.68,1.185-0.969c0.412-0.279,0.866-0.515,1.329-0.711
		c0.464-0.185,0.958-0.34,1.442-0.433c2.514-0.504,5.182,0.31,6.975,2.113c1.442,1.432,2.267,3.43,2.267,5.46
		c0,2.029-0.824,4.028-2.267,5.46C432.23,337.897,430.231,338.721,428.202,338.721z"/>
	<path style="fill:#EA473B;" d="M269.4,249.698c-0.901-0.36-1.86-1.008-2.503-1.669c-0.704-0.683-1.337-1.672-1.669-2.503
		c-0.196-0.474-0.351-0.959-0.443-1.453c-0.103-0.495-0.154-0.999-0.154-1.504c0-2.04,0.824-4.028,2.267-5.471
		c1.432-1.432,3.43-2.256,5.46-2.256c4.271,0,7.727,3.468,7.727,7.727c0,2.045-0.863,4.097-2.267,5.46
		c-1.029,1.058-2.564,1.853-3.946,2.112C272.388,250.445,270.866,250.302,269.4,249.698z"/>
	<path style="fill:#EA473B;" d="M270.852,368.042c-0.93-0.174-1.944-0.577-2.782-1.144c-0.862-0.59-1.546-1.251-2.132-2.143
		c-0.59-0.873-0.986-1.895-1.154-2.771c-0.201-0.985-0.211-1.997,0-3.029c0.168-0.881,0.564-1.897,1.154-2.771
		c0.562-0.854,1.256-1.556,2.132-2.133c0.862-0.583,1.805-0.951,2.782-1.154c1.518-0.317,3.089-0.135,4.461,0.443
		c0.918,0.369,1.87,1.018,2.503,1.669c0.643,0.624,1.243,1.473,1.68,2.503c0.395,0.99,0.587,1.983,0.587,2.957
		c0,0.957-0.185,1.95-0.587,2.957c-0.435,1.029-1.03,1.872-1.68,2.504c-0.629,0.647-1.473,1.243-2.503,1.679
		c-0.464,0.185-0.958,0.34-1.443,0.433C272.854,368.249,271.835,368.246,270.852,368.042z"/>
	<path style="fill:#EA473B;" d="M236.226,265.615c0.882-0.582,1.851-0.97,2.781-1.144c1.531-0.316,3.035-0.137,4.461,0.433
		c0.915,0.379,1.755,0.921,2.514,1.679c2.074,2.075,2.94,5.34,1.669,8.417c-0.863,2.045-2.449,3.492-4.183,4.173
		c-0.464,0.195-0.948,0.35-1.442,0.443C234.001,281.282,229.11,270.461,236.226,265.615z"/>
	<path style="fill:#EA473B;" d="M236.226,337.423c-4.199-2.859-4.475-8.589-1.175-11.888c3.098-3.102,8.041-2.907,10.931,0
		c3.011,3.01,3.02,7.901,0,10.92C243.426,339.012,239.373,339.501,236.226,337.423z"/>
</g>
<g>
</g>
<g>
</g>
<g>
</g>
<g>
</g>
<g>
</g>
<g>
</g>
<g>
</g>
<g>
</g>
<g>
</g>
<g>
</g>
<g>
</g>
<g>
</g>
<g>
</g>
<g>
</g>
<g>
</g>
</svg>
